# xmcd
#
# Track frame offsets:
#	150
#	15424
#	31680
#	46395
#	62693
#	78308
#	96818
#	98599
#	114443
#	135443
#	149270
#	168961
#	187189
#
# Disc length: 2693 seconds
#
# Revision: 0
# Processed by: cddbd v1.5.2PL0 Copyright (c) Steve Scherf et al.
# Submitted via: EasyCDDAExtractor 12.0.0.1
#
DISCID=9b0a830d
DTITLE=The Medley - Trzy kilometry
DYEAR=1900
DGENRE=Country
TTITLE0=Kto jej to powie
TTITLE1=Trzy kilometry
TTITLE2=Sen o wolności
TTITLE3=200 kilometrów
TTITLE4=Fajny gość
TTITLE5=Pragnienia
TTITLE6=Intro
TTITLE7=Blues and Grass
TTITLE8=Stuttgart
TTITLE9=Czy wiesz czy nie
TTITLE10=Moja mała Ameryka
TTITLE11=Bank w Missisipi
TTITLE12=Talia kart
EXTD=
EXTT0=
EXTT1=
EXTT2=
EXTT3=
EXTT4=
EXTT5=
EXTT6=
EXTT7=
EXTT8=
EXTT9=
EXTT10=
EXTT11=
EXTT12=
PLAYORDER=
